<svg width="65" height="65" viewBox="0 0 65 65" fill="none" xmlns="http://www.w3.org/2000/svg">
<path d="M32.5 65C50.4493 65 65 50.4493 65 32.5C65 14.5507 50.4493 0 32.5 0C14.5507 0 0 14.5507 0 32.5C0 50.4493 14.5507 65 32.5 65Z" fill="#8DAF58"/>
<path d="M40.9782 20.3606C40.9782 20.3606 28.325 28.9031 21.8379 48.75C21.8379 48.75 21.8379 48.75 21.8379 48.8142C21.8379 48.8784 21.0671 50.8695 19.9752 52.0257C21.581 51.7688 24.0217 51.7045 25.4347 51.4476C50.3557 47.2085 39.8863 22.4802 50.2272 13.0385C50.2272 13.0385 5.97327 19.8468 17.2776 49.328C20.5533 41.749 28.0681 27.2974 40.9782 20.3606Z" fill="white"/>
</svg>
