<svg width="18" height="16" viewBox="0 0 18 16" fill="none" xmlns="http://www.w3.org/2000/svg">
<path d="M15 11V9H17C17.2833 9 17.5207 9.09567 17.712 9.287C17.904 9.479 18 9.71667 18 10C18 10.2833 17.904 10.5207 17.712 10.712C17.5207 10.904 17.2833 11 17 11H15ZM15 15V13H17C17.2833 13 17.5207 13.096 17.712 13.288C17.904 13.4793 18 13.7167 18 14C18 14.2833 17.904 14.5207 17.712 14.712C17.5207 14.904 17.2833 15 17 15H15ZM11 16C10.45 16 9.97933 15.8043 9.588 15.413C9.196 15.021 9 14.55 9 14H7V10H9C9 9.45 9.196 8.979 9.588 8.587C9.97933 8.19567 10.45 8 11 8H14V16H11ZM4 13C2.9 13 1.95833 12.6083 1.175 11.825C0.391667 11.0417 0 10.1 0 9C0 7.9 0.391667 6.95833 1.175 6.175C1.95833 5.39167 2.9 5 4 5H5.5C5.91667 5 6.27067 4.854 6.562 4.562C6.854 4.27067 7 3.91667 7 3.5C7 3.08333 6.854 2.72933 6.562 2.438C6.27067 2.146 5.91667 2 5.5 2H2C1.71667 2 1.479 1.90433 1.287 1.713C1.09567 1.521 1 1.28333 1 1C1 0.716667 1.09567 0.479 1.287 0.287C1.479 0.0956668 1.71667 0 2 0H5.5C6.46667 0 7.29167 0.341667 7.975 1.025C8.65833 1.70833 9 2.53333 9 3.5C9 4.46667 8.65833 5.29167 7.975 5.975C7.29167 6.65833 6.46667 7 5.5 7H4C3.45 7 2.97933 7.19567 2.588 7.587C2.196 7.979 2 8.45 2 9C2 9.55 2.196 10.0207 2.588 10.412C2.97933 10.804 3.45 11 4 11H6V13H4Z" fill="#363636"/>
</svg>
