<svg width="65" height="65" viewBox="0 0 65 65" fill="none" xmlns="http://www.w3.org/2000/svg">
<path d="M32.5 65C50.4493 65 65 50.4493 65 32.5C65 14.5507 50.4493 0 32.5 0C14.5507 0 0 14.5507 0 32.5C0 50.4493 14.5507 65 32.5 65Z" fill="#A1BEC6"/>
<path d="M32.757 8.22131C19.2688 8.22131 8.28564 19.2045 8.28564 32.6927C8.28564 46.1808 19.2688 57.164 32.757 57.164C46.2451 57.164 57.2283 46.1808 57.2283 32.6927C57.2283 19.2045 46.2451 8.22131 32.757 8.22131ZM10.1483 32.6927C10.1483 30.5731 10.4694 28.5178 10.9833 26.5266C11.176 26.4624 11.3686 26.3982 11.5613 26.334C12.0109 26.1413 12.3963 25.6917 12.8459 25.499C14.002 25.0494 14.3232 26.2697 14.5159 27.1689C15.2866 27.4901 16.0574 27.1689 16.507 28.0039C16.9566 28.7747 16.6354 29.995 17.5989 30.5089C18.5623 30.9585 19.4615 30.6373 19.59 32.0504C19.7185 33.078 19.5258 34.1057 19.3973 35.1334C19.2688 36.418 19.8469 36.9318 20.8746 37.5099C21.9022 38.0879 22.9299 38.666 23.3795 39.8221C23.8934 41.1709 23.508 42.5197 23.8291 43.8685C24.086 44.9604 24.5999 45.8597 24.7283 47.0158C24.921 48.3646 25.0495 50.163 26.3341 50.998C26.6552 51.2549 27.2333 51.4476 27.6186 51.1264C27.9398 50.8695 27.8756 50.2272 27.8113 49.8419C27.7471 48.75 27.5544 48.5573 28.5179 47.915C29.4813 47.2727 29.9951 46.3093 30.1878 45.1531C30.3805 44.1255 30.6374 43.5474 31.5366 42.9051C32.3716 42.327 32.6928 42.1344 33.0781 41.1067C33.3993 40.2075 34.2343 39.7579 34.8766 39.0514C35.5188 38.2806 35.7758 37.3172 35.7115 36.3537C35.7115 35.0049 35.005 34.0415 33.7204 33.7203C32.8854 33.5276 32.1147 33.7203 31.2797 33.5276C30.5732 33.3992 30.1878 32.8211 29.8667 32.1788C29.4171 31.2796 29.2244 31.0227 28.2609 30.4446C27.8756 30.2519 27.5544 30.1877 27.2333 29.995C26.7194 29.7381 26.5268 29.2885 26.0771 28.9674C25.2422 28.4535 24.1503 28.7104 23.2511 28.8389C22.4161 28.9674 21.7096 28.7104 20.8746 28.7747C20.2965 28.7747 19.5258 29.0316 19.0119 28.6462C18.4981 28.2608 18.6908 27.3616 18.2412 26.8478C17.6631 26.2055 16.3785 26.2697 15.9932 25.3063C15.7362 24.5355 16.0574 23.5079 16.5712 22.9298C17.342 22.0306 18.2412 22.2875 19.3331 22.0948C20.6819 21.8379 21.0673 21.1314 21.9022 20.2964C22.5445 19.6541 23.3795 19.6541 24.1503 19.2045C24.7926 18.8191 25.1137 18.3053 25.8202 18.1768C26.0771 17.7915 26.7194 17.9842 27.169 17.8557C27.8756 17.7272 27.6829 17.5346 28.0683 17.1492C28.7105 16.5069 29.8024 16.9565 30.5732 16.3784C31.4724 15.6077 30.6374 15.0296 29.7382 15.0296C28.7748 15.0296 27.8756 15.5434 26.9121 15.5434C25.8845 15.5434 24.7926 14.8369 24.5999 13.8093C24.4714 13.2312 24.921 12.7816 25.3706 12.5247C26.0129 12.1393 26.2698 12.5247 26.7194 12.9743C27.6186 13.745 28.3894 13.2954 29.2244 12.5889C29.5455 12.332 29.7382 12.0108 30.1236 11.9466C30.8943 11.7539 32.0505 12.2678 32.2432 13.0385C32.3716 13.745 32.0505 14.2589 32.8854 14.6442C33.3351 14.8369 34.2343 14.9654 34.6196 14.7085C35.7115 14.0662 35.7115 12.332 37.1246 11.8824C38.2807 11.5612 39.5653 12.5247 40.593 12.8458C41.1068 13.0385 41.8133 13.167 42.1987 13.5523C42.5841 13.9377 43.0337 15.0296 43.0337 15.5434C43.0337 16.5711 41.8133 17.3419 42.2629 18.5622C42.5198 19.2687 43.1621 19.4614 43.6117 18.9476C43.9329 18.5622 44.1256 17.9199 44.5109 17.5346C44.5752 17.4703 45.0248 17.0207 45.1532 16.9565C45.6028 16.7638 45.6028 17.085 46.0524 17.4061C46.759 17.9842 47.7224 18.1768 48.4289 18.7549C49.2639 19.5257 50.1631 21.4525 48.4932 21.6452C47.0801 21.7737 45.5386 21.2599 44.1898 21.581C43.419 21.7737 42.4556 22.8014 42.2629 23.5721C42.006 24.664 42.7767 25.7559 42.841 26.8478C42.9052 27.4901 42.6483 28.4535 43.0979 28.9674C43.5475 29.5454 44.5752 29.4812 45.2175 29.8023C45.924 30.1235 46.6305 31.1512 47.5297 30.83C48.3005 30.5731 48.4932 29.8023 49.4566 29.995C49.9704 30.0593 51.1908 30.83 51.4477 31.3438C51.6404 31.7934 51.5119 32.6284 51.6404 33.1423C51.8331 33.8488 51.6404 34.6195 51.8331 35.3261C51.8973 35.6472 52.2184 36.2895 52.0258 36.6106C51.8973 36.8033 51.5119 36.9318 51.3192 37.1245C51.1266 37.3814 50.9981 37.7025 50.7412 37.9595C50.42 38.2806 49.842 38.4733 49.4566 38.7944C48.3647 39.6936 48.8143 41.2994 49.1997 42.4555C49.585 43.7401 49.2639 44.6393 49.1354 45.8597C49.0712 46.5662 49.0712 47.2085 48.8785 47.8508C48.8785 48.1719 48.8143 48.4288 48.8143 48.6857C44.7036 52.7964 39.0515 55.3013 32.757 55.3013C20.2965 55.3013 10.1483 45.1531 10.1483 32.6927Z" fill="white"/>
</svg>
