<svg width="18" height="18" viewBox="0 0 18 18" fill="none" xmlns="http://www.w3.org/2000/svg">
<path d="M4.5 16L7 12H5.5V9L3 13H4.5V16ZM2 7H8V2H2V7ZM2 16H8V9H2V16ZM0 18V2C0 1.45 0.196 0.979 0.588 0.587C0.979333 0.195667 1.45 0 2 0H8C8.55 0 9.021 0.195667 9.413 0.587C9.80433 0.979 10 1.45 10 2V9H11.25C11.7333 9 12.146 9.17067 12.488 9.512C12.8293 9.854 13 10.2667 13 10.75V15.375C13 15.6583 13.1167 15.9167 13.35 16.15C13.5833 16.3833 13.8417 16.5 14.125 16.5C14.425 16.5 14.6877 16.3833 14.913 16.15C15.1377 15.9167 15.25 15.6583 15.25 15.375V6H15C14.7167 6 14.4793 5.904 14.288 5.712C14.096 5.52067 14 5.28333 14 5V3H14.5V1.5H15.5V3H16.5V1.5H17.5V3H18V5C18 5.28333 17.904 5.52067 17.712 5.712C17.5207 5.904 17.2833 6 17 6H16.75V15.375C16.75 16.075 16.496 16.6873 15.988 17.212C15.4793 17.7373 14.8583 18 14.125 18C13.4083 18 12.7917 17.7373 12.275 17.212C11.7583 16.6873 11.5 16.075 11.5 15.375V10.75C11.5 10.6667 11.4793 10.604 11.438 10.562C11.396 10.5207 11.3333 10.5 11.25 10.5H10V18H0Z" fill="#363636"/>
</svg>
