<svg width="20" height="20" viewBox="0 0 20 20" fill="none" xmlns="http://www.w3.org/2000/svg">
<path d="M13.2 17.5L16 14.7V17H17V13H13V14H15.3L12.5 16.8L13.2 17.5ZM2 18C1.45 18 0.979 17.8043 0.587 17.413C0.195667 17.021 0 16.55 0 16V2C0 1.45 0.195667 0.979 0.587 0.587C0.979 0.195667 1.45 0 2 0H16C16.55 0 17.021 0.195667 17.413 0.587C17.8043 0.979 18 1.45 18 2V8.7C17.6833 8.55 17.3583 8.42067 17.025 8.312C16.6917 8.204 16.35 8.125 16 8.075V2H2V16H8.05C8.1 16.3667 8.17933 16.7167 8.288 17.05C8.396 17.3833 8.525 17.7 8.675 18H2ZM2 16V2V8.075V8V16ZM4 14H8.075C8.125 13.65 8.204 13.3083 8.312 12.975C8.42067 12.6417 8.54167 12.3167 8.675 12H4V14ZM4 10H10.1C10.6333 9.5 11.229 9.08333 11.887 8.75C12.5457 8.41667 13.25 8.19167 14 8.075V8H4V10ZM4 6H14V4H4V6ZM15 20C13.6167 20 12.4377 19.5127 11.463 18.538C10.4877 17.5627 10 16.3833 10 15C10 13.6167 10.4877 12.4373 11.463 11.462C12.4377 10.4873 13.6167 10 15 10C16.3833 10 17.5627 10.4873 18.538 11.462C19.5127 12.4373 20 13.6167 20 15C20 16.3833 19.5127 17.5627 18.538 18.538C17.5627 19.5127 16.3833 20 15 20Z" fill="#363636"/>
</svg>
