<svg width="21" height="18" viewBox="0 0 21 18" fill="none" xmlns="http://www.w3.org/2000/svg">
<path d="M7 17.275C5.05 17.275 3.396 16.5957 2.038 15.237C0.679333 13.879 0 12.225 0 10.275C0 8.475 0.591667 6.91667 1.775 5.6C2.95833 4.28333 4.425 3.525 6.175 3.325L4.6 1.675L6 0.275L10 4.275L6 8.275L4.6 6.85L6.075 5.375C4.90833 5.60833 3.93733 6.175 3.162 7.075C2.38733 7.975 2 9.04167 2 10.275C2 11.6583 2.48767 12.8373 3.463 13.812C4.43767 14.7873 5.61667 15.275 7 15.275H10V17.275H7ZM12 8.275V1.275H21V8.275H12ZM12 17.275V10.275H21V17.275H12ZM14 15.275H19V12.275H14V15.275Z" fill="#363636"/>
</svg>
