<svg width="30" height="30" viewBox="0 0 30 30" fill="none" xmlns="http://www.w3.org/2000/svg">
<path d="M13.979 26.6667L21.2707 12.4479H16.1665V3.33333L8.87484 17.5521H13.979V26.6667ZM14.9998 29.5833C12.9825 29.5833 11.0866 29.2003 9.31234 28.4342C7.53803 27.669 5.99463 26.6302 4.68213 25.3177C3.36963 24.0052 2.33081 22.4618 1.56567 20.6875C0.79956 18.9132 0.416504 17.0174 0.416504 15C0.416504 12.9826 0.79956 11.0868 1.56567 9.3125C2.33081 7.53819 3.36963 5.99479 4.68213 4.68229C5.99463 3.36979 7.53803 2.33048 9.31234 1.56437C11.0866 0.799233 12.9825 0.416664 14.9998 0.416664C17.0172 0.416664 18.913 0.799233 20.6873 1.56437C22.4616 2.33048 24.005 3.36979 25.3175 4.68229C26.63 5.99479 27.6689 7.53819 28.434 9.3125C29.2001 11.0868 29.5832 12.9826 29.5832 15C29.5832 17.0174 29.2001 18.9132 28.434 20.6875C27.6689 22.4618 26.63 24.0052 25.3175 25.3177C24.005 26.6302 22.4616 27.669 20.6873 28.4342C18.913 29.2003 17.0172 29.5833 14.9998 29.5833ZM14.9998 26.6667C18.2325 26.6667 20.9853 25.5306 23.2584 23.2585C25.5305 20.9855 26.6665 18.2326 26.6665 15C26.6665 11.7674 25.5305 9.01451 23.2584 6.74146C20.9853 4.46937 18.2325 3.33333 14.9998 3.33333C11.7672 3.33333 9.01484 4.46937 6.74275 6.74146C4.4697 9.01451 3.33317 11.7674 3.33317 15C3.33317 18.2326 4.4697 20.9855 6.74275 23.2585C9.01484 25.5306 11.7672 26.6667 14.9998 26.6667Z" fill="#184EA2"/>
</svg>
