<svg width="28" height="27" viewBox="0 0 28 27" fill="none" xmlns="http://www.w3.org/2000/svg">
<path d="M7.396 23.7083L11.0418 17.875H8.85433V13.5L5.2085 19.3333H7.396V23.7083ZM3.75016 10.5833H12.5002V3.29167H3.75016V10.5833ZM3.75016 23.7083H12.5002V13.5H3.75016V23.7083ZM0.833496 26.625V3.29167C0.833496 2.48958 1.11933 1.80271 1.691 1.23104C2.26169 0.660347 2.94808 0.375 3.75016 0.375H12.5002C13.3022 0.375 13.9891 0.660347 14.5608 1.23104C15.1315 1.80271 15.4168 2.48958 15.4168 3.29167V13.5H17.2397C17.9446 13.5 18.5464 13.7489 19.0452 14.2467C19.5429 14.7454 19.7918 15.3472 19.7918 16.0521V22.7969C19.7918 23.2101 19.962 23.5868 20.3022 23.9271C20.6425 24.2674 21.0193 24.4375 21.4325 24.4375C21.87 24.4375 22.253 24.2674 22.5816 23.9271C22.9093 23.5868 23.0731 23.2101 23.0731 22.7969V9.125H22.7085C22.2953 9.125 21.9492 8.985 21.6702 8.705C21.3902 8.42597 21.2502 8.07986 21.2502 7.66667V4.75H21.9793V2.5625H23.4377V4.75H24.896V2.5625H26.3543V4.75H27.0835V7.66667C27.0835 8.07986 26.9435 8.42597 26.6635 8.705C26.3845 8.985 26.0384 9.125 25.6252 9.125H25.2606V22.7969C25.2606 23.8177 24.8902 24.7107 24.1493 25.4758C23.4075 26.2419 22.5019 26.625 21.4325 26.625C20.3873 26.625 19.488 26.2419 18.7345 25.4758C17.9811 24.7107 17.6043 23.8177 17.6043 22.7969V16.0521C17.6043 15.9306 17.5742 15.8392 17.5139 15.7779C17.4527 15.7176 17.3613 15.6875 17.2397 15.6875H15.4168V26.625H0.833496Z" fill="#52BA6C"/>
</svg>
