<svg width="25" height="31" viewBox="0 0 25 31" fill="none" xmlns="http://www.w3.org/2000/svg">
<path d="M12.4997 15.5C13.3018 15.5 13.9886 15.2142 14.5603 14.6425C15.131 14.0718 15.4163 13.3854 15.4163 12.5833C15.4163 11.7812 15.131 11.0944 14.5603 10.5227C13.9886 9.95201 13.3018 9.66667 12.4997 9.66667C11.6976 9.66667 11.0112 9.95201 10.4405 10.5227C9.86884 11.0944 9.58301 11.7812 9.58301 12.5833C9.58301 13.3854 9.86884 14.0718 10.4405 14.6425C11.0112 15.2142 11.6976 15.5 12.4997 15.5ZM12.4997 26.2188C15.465 23.4965 17.6646 21.0232 19.0986 18.7987C20.5327 16.5753 21.2497 14.6007 21.2497 12.875C21.2497 10.2257 20.4048 8.05618 18.7151 6.36646C17.0263 4.67771 14.9545 3.83333 12.4997 3.83333C10.0448 3.83333 7.97252 4.67771 6.2828 6.36646C4.59405 8.05618 3.74967 10.2257 3.74967 12.875C3.74967 14.6007 4.46669 16.5753 5.90072 18.7987C7.33474 21.0232 9.5344 23.4965 12.4997 26.2188ZM12.4997 30.0833C8.58648 26.7535 5.66398 23.6603 3.73217 20.804C1.7994 17.9485 0.833008 15.3056 0.833008 12.875C0.833008 9.22917 2.00599 6.32465 4.35197 4.16146C6.69697 1.99826 9.41287 0.916664 12.4997 0.916664C15.5865 0.916664 18.3024 1.99826 20.6474 4.16146C22.9934 6.32465 24.1663 9.22917 24.1663 12.875C24.1663 15.3056 23.2004 17.9485 21.2686 20.804C19.3359 23.6603 16.4129 26.7535 12.4997 30.0833Z" fill="#F05C3C"/>
</svg>
