<svg width="35" height="26" viewBox="0 0 35 26" fill="none" xmlns="http://www.w3.org/2000/svg">
<mask id="mask0_1716_950" style="mask-type:alpha" maskUnits="userSpaceOnUse" x="0" y="0" width="35" height="26">
<rect width="35" height="26" rx="4" fill="#D9D9D9"/>
</mask>
<g mask="url(#mask0_1716_950)">
<path d="M0 0H44.572V3.71401H0V0ZM0 7.42898H44.572V11.143H0V7.42898ZM0 14.857H44.572V18.571H0V14.857ZM0 22.286H44.572V26H0V22.286Z" fill="#D80027"/>
<path d="M0 0.000595093H22.286V16.001H0V0.000595093Z" fill="#2E52B2"/>
<path d="M8.69013 6.55512L8.33121 7.65932H7.17025L8.10965 8.3414L7.75073 9.44551L8.69013 8.76344L9.62893 9.44551L9.27009 8.3414L10.2095 7.65932H9.04845L8.69013 6.55512ZM9.04845 11.644L8.69013 10.5399L8.33121 11.644H7.17025L8.10965 12.3261L7.75073 13.4303L8.69013 12.7481L9.62893 13.4303L9.27009 12.3261L10.2095 11.644H9.04845ZM4.14196 11.644L3.78356 10.5399L3.42463 11.644H2.26367L3.20308 12.3261L2.84415 13.4303L3.78356 12.7481L4.72244 13.4303L4.3636 12.3261L5.30284 11.644H4.14196ZM3.78356 6.55512L3.42463 7.65932H2.26367L3.20308 8.3414L2.84415 9.44551L3.78356 8.76344L4.72244 9.44551L4.3636 8.3414L5.30284 7.65932H4.14196L3.78356 6.55512ZM8.69013 2.57028L8.33121 3.67457H7.17025L8.10965 4.35673L7.75073 5.46084L8.69013 4.77868L9.62893 5.46084L9.27009 4.35673L10.2095 3.67457H9.04845L8.69013 2.57028ZM3.78356 2.57028L3.42463 3.67457H2.26367L3.20308 4.35673L2.84415 5.46084L3.78356 4.77868L4.72244 5.46084L4.3636 4.35673L5.30284 3.67457H4.14196L3.78356 2.57028ZM13.5966 6.55512L13.2378 7.65932H12.0768L13.0161 8.3414L12.6574 9.44551L13.5966 8.76344L14.5356 9.44551L14.1767 8.3414L15.1161 7.65932H13.9551L13.5966 6.55512ZM13.9551 11.644L13.5966 10.5399L13.2378 11.644H12.0768L13.0161 12.3261L12.6574 13.4303L13.5966 12.7481L14.5356 13.4303L14.1767 12.3261L15.1161 11.644H13.9551ZM18.8617 11.644L18.5033 10.5399L18.1444 11.644H16.9835L17.9227 12.3261L17.5639 13.4303L18.5033 12.7481L19.4422 13.4303L19.0832 12.3261L20.0226 11.644H18.8617ZM18.5033 6.55512L18.1444 7.65932H16.9835L17.9227 8.3414L17.5639 9.44551L18.5033 8.76344L19.4422 9.44551L19.0832 8.3414L20.0226 7.65932H18.8617L18.5033 6.55512ZM13.5966 2.57028L13.2378 3.67457H12.0768L13.0161 4.35673L12.6574 5.46084L13.5966 4.77868L14.5356 5.46084L14.1767 4.35673L15.1161 3.67457H13.9551L13.5966 2.57028ZM18.5033 2.57028L18.1444 3.67457H16.9835L17.9227 4.35673L17.5639 5.46084L18.5033 4.77868L19.4422 5.46084L19.0832 4.35673L20.0226 3.67457H18.8617L18.5033 2.57028Z" fill="#F0F0F0"/>
</g>
</svg>
