<svg width="20" height="20" viewBox="0 0 20 20" fill="none" xmlns="http://www.w3.org/2000/svg">
<circle cx="10" cy="10" r="10" fill="#8D9CB1"/>
<path fill-rule="evenodd" clip-rule="evenodd" d="M13.7069 4.02754C12.9317 4.02754 12.1322 4.02754 11.2983 4.02754C10.5394 4.02754 9.58223 3.90555 9.0491 4.1751C8.73033 4.33621 8.46624 4.68964 8.21671 4.94941C7.56424 5.62869 6.95319 6.26472 6.26857 6.9776C6.14561 7.1056 5.94691 7.25831 5.91439 7.38318C5.79541 7.84055 6.01169 8.39834 5.89681 8.89507C5.84888 9.10207 5.40595 9.41851 5.29467 9.59566C4.5066 10.8502 5.42064 12.345 6.60516 12.4536C7.07374 12.4966 7.59001 12.4536 8.09291 12.4536C9.10522 12.4536 10.0048 12.4536 11.0683 12.4536C11.5536 12.4536 12.0989 12.3696 12.5028 12.4904C13.0115 12.6426 13.4562 13.336 13.1227 14.0025C12.9957 14.256 12.7141 14.5324 12.308 14.574C11.7699 14.6291 11.1679 14.574 10.5724 14.574C8.93157 14.574 6.98065 14.574 5.40101 14.574C5.40101 14.746 5.40101 14.9182 5.40101 15.0903C7.16105 15.0903 8.86485 15.0903 10.6078 15.0903C11.164 15.0903 11.7418 15.1371 12.3257 15.0903C13.1366 15.0251 13.8367 14.3208 13.7248 13.2834C13.6515 12.6029 13.0889 12.0096 12.3788 11.9374C11.935 11.8924 11.4379 11.9374 10.9443 11.9374C10.0188 11.9374 9.02995 11.9374 8.07521 11.9374C7.37649 11.9374 6.58276 12.0298 6.14477 11.7715C5.65668 11.4837 5.29419 10.6865 5.66655 9.98307C5.73821 9.84767 5.83455 9.73458 5.95004 9.61435C6.0424 9.51818 6.18222 9.33062 6.28651 9.30091C6.708 9.18055 7.54738 9.40673 7.96899 9.30091C8.13578 9.25916 8.51019 8.79277 8.64194 8.65561C9.20481 8.06961 9.6699 7.56698 10.2359 6.97772C10.34 6.8694 10.4918 6.68735 10.5724 6.66429C10.7701 6.60787 11.1503 6.63156 11.2807 6.66429C11.4279 6.70115 11.6087 6.9366 11.7235 7.05144C11.8553 7.18321 12.0059 7.41641 12.1485 7.45703C12.3822 7.52373 12.6873 7.45703 12.9455 7.45703C13.2005 7.45703 13.4435 7.45703 13.7248 7.45703C13.7243 6.65413 13.7548 5.9395 13.7425 5.09698C13.9422 5.09698 14.2442 5.09071 14.4864 5.07855C14.5273 5.47223 14.4925 5.94489 14.5041 6.36915C14.4813 6.45604 14.2877 6.36514 14.2384 6.42444C14.2384 6.59044 14.2384 6.75631 14.2384 6.92231C14.4923 6.92231 14.7461 6.92231 15 6.92231C15 6.13558 15 5.34898 15 4.56226C14.5809 4.56226 14.1617 4.56226 13.7426 4.56226C13.7031 4.43738 13.7353 4.23804 13.7249 4.08295C13.7261 4.05675 13.7276 4.03067 13.7069 4.02754Z" fill="white"/>
</svg>
