<svg width="50" height="50" viewBox="0 0 50 50" fill="none" xmlns="http://www.w3.org/2000/svg">
<path d="M32.8125 43.75H1.5625C0.703125 43.75 0 44.4531 0 45.3125V48.4375C0 49.2969 0.703125 50 1.5625 50H32.8125C33.6719 50 34.375 49.2969 34.375 48.4375V45.3125C34.375 44.4531 33.6719 43.75 32.8125 43.75ZM48.1641 10.4785L40.2539 2.56836C39.6484 1.96289 38.6523 1.96289 38.0469 2.56836L36.9434 3.67187C36.3379 4.27734 36.3379 5.27344 36.9434 5.87891L40.625 9.56055V15.625C40.625 18.3691 42.666 20.6348 45.3125 21.0156V36.7188C45.3125 38.0078 44.2578 39.0625 42.9688 39.0625C41.6797 39.0625 40.625 38.0078 40.625 36.7188V33.5938C40.625 28.8477 36.7773 25 32.0312 25H31.25V6.25C31.25 2.80273 28.4473 0 25 0H9.375C5.92773 0 3.125 2.80273 3.125 6.25V40.625H31.25V29.6875H32.0312C34.1895 29.6875 35.9375 31.4355 35.9375 33.5938V36.3086C35.9375 39.9902 38.5742 43.3398 42.2363 43.7207C46.4355 44.1406 50 40.8398 50 36.7188V14.9023C50 13.2422 49.3359 11.6504 48.1641 10.4785ZM25 18.75H9.375V6.25H25V18.75Z" fill="#8D9CB1"/>
</svg>
